<svg xmlns="http://www.w3.org/2000/svg" width="1280" height="720" viewBox="0 0 1280 720" role="img" aria-label="GitDNA reveal screenshot">
  <defs>
    <linearGradient id="bg" x1="0" y1="0" x2="1" y2="1">
      <stop offset="0%" stop-color="#050b16" />
      <stop offset="55%" stop-color="#0b1626" />
      <stop offset="100%" stop-color="#1a1f4b" />
    </linearGradient>
    <linearGradient id="panel" x1="0" y1="0" x2="1" y2="1">
      <stop offset="0%" stop-color="#0b1626" stop-opacity="0.94" />
      <stop offset="100%" stop-color="#12243b" stop-opacity="0.82" />
    </linearGradient>
    <linearGradient id="card" x1="0" y1="0" x2="1" y2="1">
      <stop offset="0%" stop-color="#082139" stop-opacity="0.92" />
      <stop offset="100%" stop-color="#111e30" stop-opacity="0.82" />
    </linearGradient>
  </defs>
  <rect width="1280" height="720" fill="url(#bg)"/>

  <rect x="52" y="40" width="1176" height="638" rx="24" fill="url(#panel)" stroke="#334155" stroke-opacity="0.6"/>

  <text x="96" y="98" fill="#67e8f9" font-size="16" letter-spacing="2" font-family="IBM Plex Sans, Arial, sans-serif" font-weight="700">DNA REVEAL</text>
  <text x="96" y="148" fill="#f8fafc" font-size="48" font-family="Space Grotesk, Arial, sans-serif" font-weight="700">@bhanunamikaze · Minimal Explorer</text>
  <text x="96" y="186" fill="#a5f3fc" font-size="30" font-family="IBM Plex Sans, Arial, sans-serif" font-weight="700">The Needle Pathfinder</text>

  <rect x="96" y="220" width="488" height="272" rx="18" fill="url(#card)" stroke="#3b82f6" stroke-opacity="0.28"/>
  <rect x="126" y="252" width="140" height="140" rx="20" fill="#0f172a" stroke="#64748b"/>
  <polygon points="196,280 236,322 196,364 156,322" fill="#cbd5e1" stroke="#334155" stroke-width="3"/>
  <text x="126" y="420" fill="#e2e8f0" font-size="26" font-family="Space Grotesk, Arial, sans-serif" font-weight="700">Signal Clarity</text>
  <rect x="126" y="436" width="424" height="14" rx="7" fill="#1e293b"/>
  <rect x="126" y="436" width="274" height="14" rx="7" fill="#22d3ee"/>
  <text x="558" y="448" text-anchor="end" fill="#67e8f9" font-size="16" font-family="JetBrains Mono, monospace">Emerging</text>

  <rect x="606" y="220" width="574" height="272" rx="18" fill="url(#card)" stroke="#334155"/>
  <text x="638" y="258" fill="#f8fafc" font-size="28" font-family="Space Grotesk, Arial, sans-serif" font-weight="700">GitHub Signal Constellation</text>

  <g transform="translate(906,356)">
    <circle cx="0" cy="0" r="48" fill="#0f2940" stroke="#22d3ee" stroke-opacity="0.6"/>
    <circle cx="0" cy="0" r="30" fill="#22d3ee" fill-opacity="0.84"/>
    <text x="0" y="7" text-anchor="middle" fill="#ecfeff" font-size="16" font-family="JetBrains Mono, monospace" font-weight="700">DNA</text>

    <circle cx="-144" cy="-72" r="12" fill="#67e8f9"/>
    <circle cx="138" cy="-64" r="12" fill="#a78bfa"/>
    <circle cx="-164" cy="86" r="12" fill="#fbbf24"/>
    <circle cx="152" cy="90" r="12" fill="#86efac"/>
    <line x1="0" y1="0" x2="-144" y2="-72" stroke="#7dd3fc" stroke-opacity="0.4"/>
    <line x1="0" y1="0" x2="138" y2="-64" stroke="#c4b5fd" stroke-opacity="0.4"/>
    <line x1="0" y1="0" x2="-164" y2="86" stroke="#fcd34d" stroke-opacity="0.34"/>
    <line x1="0" y1="0" x2="152" y2="90" stroke="#86efac" stroke-opacity="0.34"/>
  </g>

  <rect x="96" y="514" width="1084" height="130" rx="18" fill="url(#card)" stroke="#334155"/>
  <text x="126" y="552" fill="#f8fafc" font-size="28" font-family="Space Grotesk, Arial, sans-serif" font-weight="700">Your GitHub DNA Badge</text>
  <rect x="126" y="566" width="930" height="52" rx="10" fill="#08192e" stroke="#1e3a5f"/>
  <text x="150" y="598" fill="#22d3ee" font-size="18" font-family="JetBrains Mono, monospace">&lt;svg ... @bhanunamikaze | Minimal Explorer | repos | commits | languages /&gt;</text>

  <rect x="1068" y="566" width="90" height="52" rx="10" fill="#22d3ee"/>
  <text x="1114" y="598" text-anchor="middle" fill="#032028" font-size="16" font-family="IBM Plex Sans, Arial, sans-serif" font-weight="700">Copy</text>
</svg>
